<mxfile host="www.draw.io" modified="2020-01-16T16:51:43.554Z" agent="Mozilla/5.0 (X11; Linux x86_64) AppleWebKit/537.36 (KHTML, like Gecko) Chrome/79.0.3945.117 Safari/537.36" etag="8m-ToUVfHPhBFgI0EX5k" version="12.5.4" type="github">
  <diagram id="zO-Ndx_tbdGU6NtDlcAN" name="Page-1">
    <mxGraphModel dx="768" dy="419" grid="1" gridSize="10" guides="1" tooltips="1" connect="1" arrows="1" fold="1" page="1" pageScale="1" pageWidth="850" pageHeight="1100" math="0" shadow="0">
      <root>
        <mxCell id="0"/>
        <mxCell id="1" parent="0"/>
        <mxCell id="mCaw67XqG0S3leMnFBG2-7" value="" style="ellipse;shape=cloud;whiteSpace=wrap;html=1;" parent="1" vertex="1">
          <mxGeometry y="390" width="160" height="150" as="geometry"/>
        </mxCell>
        <mxCell id="mCaw67XqG0S3leMnFBG2-2" value="" style="ellipse;shape=cloud;whiteSpace=wrap;html=1;" parent="1" vertex="1">
          <mxGeometry y="110" width="160" height="150" as="geometry"/>
        </mxCell>
        <mxCell id="mCaw67XqG0S3leMnFBG2-6" value="" style="edgeStyle=orthogonalEdgeStyle;rounded=0;orthogonalLoop=1;jettySize=auto;html=1;exitX=0.5;exitY=1;exitDx=0;exitDy=0;" parent="1" source="mCaw67XqG0S3leMnFBG2-1" target="mCaw67XqG0S3leMnFBG2-4" edge="1">
          <mxGeometry relative="1" as="geometry"/>
        </mxCell>
        <mxCell id="mCaw67XqG0S3leMnFBG2-3" value="" style="edgeStyle=orthogonalEdgeStyle;rounded=0;orthogonalLoop=1;jettySize=auto;html=1;" parent="1" source="7s5gqH4z4nf9z0TM5Xe7-1" target="mCaw67XqG0S3leMnFBG2-1" edge="1">
          <mxGeometry relative="1" as="geometry"/>
        </mxCell>
        <mxCell id="7s5gqH4z4nf9z0TM5Xe7-1" value="get clone request remote URI" style="ellipse;whiteSpace=wrap;html=1;fillColor=#d5e8d4;strokeColor=#82b366;" parent="1" vertex="1">
          <mxGeometry x="20" y="30" width="120" height="80" as="geometry"/>
        </mxCell>
        <mxCell id="mCaw67XqG0S3leMnFBG2-1" value="&lt;div&gt;Remote&lt;/div&gt;&lt;div&gt;returns metadata&lt;/div&gt;&lt;div&gt;with capability for pack&lt;br&gt;&lt;/div&gt;" style="whiteSpace=wrap;html=1;aspect=fixed;fillColor=#d5e8d4;strokeColor=#82b366;" parent="1" vertex="1">
          <mxGeometry x="40" y="145" width="80" height="80" as="geometry"/>
        </mxCell>
        <mxCell id="mCaw67XqG0S3leMnFBG2-4" value="&lt;div&gt;Add metadata to our repo management DB&lt;/div&gt;&lt;div&gt;flag as not fetched&lt;br&gt;&lt;/div&gt;" style="whiteSpace=wrap;html=1;aspect=fixed;fillColor=#d5e8d4;strokeColor=#82b366;" parent="1" vertex="1">
          <mxGeometry x="40" y="290" width="80" height="80" as="geometry"/>
        </mxCell>
        <mxCell id="mCaw67XqG0S3leMnFBG2-5" value="fetches pack" style="whiteSpace=wrap;html=1;aspect=fixed;fillColor=#d5e8d4;strokeColor=#82b366;" parent="1" vertex="1">
          <mxGeometry x="40" y="425" width="80" height="80" as="geometry"/>
        </mxCell>
        <mxCell id="mCaw67XqG0S3leMnFBG2-8" value="" style="endArrow=classic;html=1;exitX=0.5;exitY=1;exitDx=0;exitDy=0;entryX=0.5;entryY=0;entryDx=0;entryDy=0;" parent="1" source="mCaw67XqG0S3leMnFBG2-4" target="mCaw67XqG0S3leMnFBG2-5" edge="1">
          <mxGeometry width="50" height="50" relative="1" as="geometry">
            <mxPoint x="240" y="400" as="sourcePoint"/>
            <mxPoint x="290" y="350" as="targetPoint"/>
          </mxGeometry>
        </mxCell>
        <mxCell id="mCaw67XqG0S3leMnFBG2-13" value="" style="edgeStyle=orthogonalEdgeStyle;rounded=0;orthogonalLoop=1;jettySize=auto;html=1;" parent="1" source="mCaw67XqG0S3leMnFBG2-9" target="mCaw67XqG0S3leMnFBG2-12" edge="1">
          <mxGeometry relative="1" as="geometry"/>
        </mxCell>
        <mxCell id="mCaw67XqG0S3leMnFBG2-9" value="unpack" style="whiteSpace=wrap;html=1;aspect=fixed;fillColor=#f8cecc;strokeColor=#b85450;" parent="1" vertex="1">
          <mxGeometry x="200" y="425" width="80" height="80" as="geometry"/>
        </mxCell>
        <mxCell id="mCaw67XqG0S3leMnFBG2-11" value="" style="endArrow=classic;html=1;exitX=1;exitY=0.5;exitDx=0;exitDy=0;" parent="1" source="mCaw67XqG0S3leMnFBG2-5" target="mCaw67XqG0S3leMnFBG2-9" edge="1">
          <mxGeometry width="50" height="50" relative="1" as="geometry">
            <mxPoint x="190" y="380" as="sourcePoint"/>
            <mxPoint x="240" y="330" as="targetPoint"/>
          </mxGeometry>
        </mxCell>
        <mxCell id="mCaw67XqG0S3leMnFBG2-15" value="" style="edgeStyle=orthogonalEdgeStyle;rounded=0;orthogonalLoop=1;jettySize=auto;html=1;" parent="1" source="mCaw67XqG0S3leMnFBG2-12" target="mCaw67XqG0S3leMnFBG2-14" edge="1">
          <mxGeometry relative="1" as="geometry"/>
        </mxCell>
        <mxCell id="mCaw67XqG0S3leMnFBG2-12" value="flag as fetched in repo management db" style="whiteSpace=wrap;html=1;aspect=fixed;fillColor=#d5e8d4;strokeColor=#82b366;" parent="1" vertex="1">
          <mxGeometry x="330" y="425" width="80" height="80" as="geometry"/>
        </mxCell>
        <mxCell id="mCaw67XqG0S3leMnFBG2-14" value="return success" style="ellipse;whiteSpace=wrap;html=1;fillColor=#d5e8d4;strokeColor=#82b366;" parent="1" vertex="1">
          <mxGeometry x="460" y="425" width="120" height="80" as="geometry"/>
        </mxCell>
      </root>
    </mxGraphModel>
  </diagram>
</mxfile>
